# Blender 4.1.1
# www.blender.org
mtllib planeii.mtl
g Plane_Mesh
v -54.929256 -8.835981 54.929256
v 54.929256 -8.835981 54.929256
v -54.929256 -8.835981 -54.929256
v 54.929256 -8.835981 -54.929256
v -54.929256 -2.637706 -54.929256
v -54.929256 -2.637706 54.929256
v 54.929256 -2.637706 54.929256
v 54.929256 -2.637706 -54.929256
v 114.306824 0.694521 54.929256
v 114.306824 0.694521 -54.929256
v 114.306824 6.892797 54.929256
v 114.306824 6.892797 -54.929256
v -54.929256 12.233858 101.831039
v 54.929256 12.233858 101.831039
v -54.929256 18.432133 101.831039
v 54.929256 18.432133 101.831039
v -127.044006 16.779564 54.929256
v -127.044006 16.779564 -54.929256
v -127.044006 22.977840 -54.929256
v -127.044006 22.977840 54.929256
v -54.929256 36.061775 -132.843750
v 54.929256 36.061775 -132.843750
v -54.929256 42.260048 -132.843750
v 54.929256 42.260048 -132.843750
vn -0.0000 -1.0000 -0.0000
vn -0.0000 1.0000 -0.0000
vn -0.0000 0.8664 0.4993
vn -0.0000 0.9122 -0.4098
vn -0.0000 -0.0000 1.0000
vn -0.0000 -0.0000 -1.0000
vn 1.0000 -0.0000 -0.0000
vn -0.1585 0.9874 -0.0000
vn 0.1585 -0.9874 -0.0000
vn -0.0000 -0.9122 0.4098
vn -1.0000 -0.0000 -0.0000
vn 0.3347 0.9423 -0.0000
vn -0.3347 -0.9423 -0.0000
vn -0.0000 -0.8664 -0.4993
vt 0.000000 1.000000
vt 1.000000 0.000000
vt 0.000000 0.000000
vt 1.000000 1.000000
s 0
g off
f 3/1/1 2/2/1 1/3/1
f 7/2/2 5/1/2 6/3/2
f 8/4/3 23/1/3 5/1/3
f 6/3/4 16/2/4 7/2/4
f 7/2/5 9/2/5 11/2/5
f 5/1/6 18/1/6 19/1/6
f 10/4/7 11/2/7 9/2/7
f 7/2/8 12/4/8 8/4/8
f 4/4/9 9/2/9 2/2/9
f 8/4/6 10/4/6 4/4/6
f 14/2/5 15/3/5 13/3/5
f 2/2/10 13/3/10 1/3/10
f 7/2/7 14/2/7 2/2/7
f 6/3/11 13/3/11 15/3/11
f 17/3/11 19/1/11 18/1/11
f 5/1/12 20/3/12 6/3/12
f 1/3/13 18/1/13 3/1/13
f 6/3/5 17/3/5 1/3/5
f 21/1/6 24/4/6 22/4/6
f 3/1/14 22/4/14 4/4/14
f 5/1/11 21/1/11 3/1/11
f 8/4/7 22/4/7 24/4/7
f 3/1/1 4/4/1 2/2/1
f 7/2/2 8/4/2 5/1/2
f 8/4/3 24/4/3 23/1/3
f 6/3/4 15/3/4 16/2/4
f 7/2/5 2/2/5 9/2/5
f 5/1/6 3/1/6 18/1/6
f 10/4/7 12/4/7 11/2/7
f 7/2/8 11/2/8 12/4/8
f 4/4/9 10/4/9 9/2/9
f 8/4/6 12/4/6 10/4/6
f 14/2/5 16/2/5 15/3/5
f 2/2/10 14/2/10 13/3/10
f 7/2/7 16/2/7 14/2/7
f 6/3/11 1/3/11 13/3/11
f 17/3/11 20/3/11 19/1/11
f 5/1/12 19/1/12 20/3/12
f 1/3/13 17/3/13 18/1/13
f 6/3/5 20/3/5 17/3/5
f 21/1/6 23/1/6 24/4/6
f 3/1/14 21/1/14 22/4/14
f 5/1/11 23/1/11 21/1/11
f 8/4/7 4/4/7 22/4/7
